<svg width="14" height="14" viewBox="0 0 14 14" fill="none" xmlns="http://www.w3.org/2000/svg">
<path d="M6.60627 8.93959C6.71321 9.04653 6.84699 9.09748 7.0076 9.09242C7.16783 9.08776 7.30141 9.03195 7.40835 8.92501C7.5153 8.81806 7.56877 8.68195 7.56877 8.51667C7.56877 8.35139 7.5153 8.21528 7.40835 8.10834L6.88335 7.58334H8.7646C8.92988 7.58334 9.06599 7.52734 9.17294 7.41534C9.27988 7.30373 9.33335 7.16528 9.33335 7.00001C9.33335 6.83473 9.27755 6.69609 9.16594 6.58409C9.05394 6.47248 8.9153 6.41667 8.75002 6.41667H6.88335L7.42294 5.87709C7.52988 5.77014 7.58102 5.63637 7.57635 5.47576C7.5713 5.31553 7.5153 5.18195 7.40835 5.07501C7.30141 4.96806 7.1653 4.91459 7.00002 4.91459C6.83474 4.91459 6.69863 4.96806 6.59169 5.07501L5.07502 6.59167C4.96808 6.69862 4.9146 6.83473 4.9146 7.00001C4.9146 7.16528 4.96808 7.30139 5.07502 7.40834L6.60627 8.93959ZM7.00002 12.8333C6.19308 12.8333 5.43474 12.6801 4.72502 12.3737C4.0153 12.0676 3.39794 11.6521 2.87294 11.1271C2.34794 10.6021 1.93241 9.98473 1.62635 9.27501C1.31991 8.56528 1.16669 7.80695 1.16669 7.00001C1.16669 6.19306 1.31991 5.43473 1.62635 4.72501C1.93241 4.01528 2.34794 3.39792 2.87294 2.87292C3.39794 2.34792 4.0153 1.9322 4.72502 1.62576C5.43474 1.3197 6.19308 1.16667 7.00002 1.16667C7.80697 1.16667 8.5653 1.3197 9.27502 1.62576C9.98474 1.9322 10.6021 2.34792 11.1271 2.87292C11.6521 3.39792 12.0676 4.01528 12.3737 4.72501C12.6801 5.43473 12.8334 6.19306 12.8334 7.00001C12.8334 7.80695 12.6801 8.56528 12.3737 9.27501C12.0676 9.98473 11.6521 10.6021 11.1271 11.1271C10.6021 11.6521 9.98474 12.0676 9.27502 12.3737C8.5653 12.6801 7.80697 12.8333 7.00002 12.8333Z" fill="white"/>
</svg>
