<svg width="14" height="14" viewBox="0 0 14 14" fill="none" xmlns="http://www.w3.org/2000/svg">
<path d="M7.39376 5.06042C7.28681 4.95348 7.15304 4.90253 6.99243 4.90759C6.8322 4.91225 6.69862 4.96806 6.59168 5.075C6.48473 5.18195 6.43126 5.31806 6.43126 5.48334C6.43126 5.64861 6.48473 5.78473 6.59168 5.89167L7.11668 6.41667L5.23543 6.41667C5.07015 6.41667 4.93404 6.47267 4.82709 6.58467C4.72015 6.69628 4.66668 6.83473 4.66668 7C4.66668 7.16528 4.72248 7.30392 4.83409 7.41592C4.94609 7.52753 5.08473 7.58334 5.25001 7.58334L7.11668 7.58334L6.57709 8.12292C6.47015 8.22986 6.41901 8.36364 6.42368 8.52425C6.42873 8.68448 6.48473 8.81806 6.59168 8.925C6.69862 9.03195 6.83473 9.08542 7.00001 9.08542C7.16529 9.08542 7.3014 9.03195 7.40834 8.925L8.92501 7.40834C9.03195 7.30139 9.08543 7.16528 9.08543 7C9.08543 6.83472 9.03195 6.69861 8.92501 6.59167L7.39376 5.06042ZM7.00001 1.16667C7.80695 1.16667 8.56529 1.31989 9.27501 1.62634C9.98473 1.93239 10.6021 2.34792 11.1271 2.87292C11.6521 3.39792 12.0676 4.01528 12.3737 4.725C12.6801 5.43472 12.8333 6.19306 12.8333 7C12.8333 7.80695 12.6801 8.56528 12.3737 9.275C12.0676 9.98472 11.6521 10.6021 11.1271 11.1271C10.6021 11.6521 9.98473 12.0678 9.27501 12.3743C8.56529 12.6803 7.80695 12.8333 7.00001 12.8333C6.19307 12.8333 5.43473 12.6803 4.72501 12.3743C4.01529 12.0678 3.39793 11.6521 2.87293 11.1271C2.34793 10.6021 1.9324 9.98473 1.62634 9.275C1.3199 8.56528 1.16668 7.80695 1.16668 7C1.16667 6.19306 1.3199 5.43473 1.62634 4.725C1.9324 4.01528 2.34793 3.39792 2.87292 2.87292C3.39792 2.34792 4.01529 1.93239 4.72501 1.62634C5.43473 1.31989 6.19306 1.16667 7.00001 1.16667Z" fill="white"/>
</svg>
