<svg width="12" height="12" viewBox="0 0 12 12" fill="none" xmlns="http://www.w3.org/2000/svg">
<path d="M6.39376 4.06042C6.28681 3.95348 6.15304 3.90253 5.99243 3.90759C5.8322 3.91225 5.69862 3.96806 5.59168 4.075C5.48473 4.18195 5.43126 4.31806 5.43126 4.48334C5.43126 4.64861 5.48473 4.78473 5.59168 4.89167L6.11668 5.41667L4.23543 5.41667C4.07015 5.41667 3.93404 5.47267 3.82709 5.58467C3.72015 5.69628 3.66668 5.83473 3.66668 6C3.66668 6.16528 3.72248 6.30392 3.83409 6.41592C3.94609 6.52753 4.08473 6.58334 4.25001 6.58334L6.11668 6.58334L5.57709 7.12292C5.47015 7.22986 5.41901 7.36364 5.42368 7.52425C5.42873 7.68448 5.48473 7.81806 5.59168 7.925C5.69862 8.03195 5.83473 8.08542 6.00001 8.08542C6.16529 8.08542 6.3014 8.03195 6.40834 7.925L7.92501 6.40834C8.03195 6.30139 8.08543 6.16528 8.08543 6C8.08543 5.83472 8.03195 5.69861 7.92501 5.59167L6.39376 4.06042ZM6.00001 0.166668C6.80695 0.166668 7.56529 0.319891 8.27501 0.626335C8.98473 0.932391 9.60209 1.34792 10.1271 1.87292C10.6521 2.39792 11.0676 3.01528 11.3737 3.725C11.6801 4.43472 11.8333 5.19306 11.8333 6C11.8333 6.80695 11.6801 7.56528 11.3737 8.275C11.0676 8.98472 10.6521 9.60209 10.1271 10.1271C9.60209 10.6521 8.98473 11.0678 8.27501 11.3743C7.56529 11.6803 6.80695 11.8333 6.00001 11.8333C5.19307 11.8333 4.43473 11.6803 3.72501 11.3743C3.01529 11.0678 2.39793 10.6521 1.87293 10.1271C1.34793 9.60209 0.932399 8.98473 0.626342 8.275C0.319898 7.56528 0.166675 6.80695 0.166675 6C0.166675 5.19306 0.319898 4.43473 0.626342 3.725C0.932398 3.01528 1.34793 2.39792 1.87292 1.87292C2.39792 1.34792 3.01529 0.932392 3.72501 0.626336C4.43473 0.319892 5.19306 0.166669 6.00001 0.166668Z" fill="black"/>
</svg>
