<svg width="12" height="12" viewBox="0 0 12 12" fill="none" xmlns="http://www.w3.org/2000/svg">
<path d="M5.60626 7.93959C5.7132 8.04653 5.84698 8.09748 6.00759 8.09242C6.16781 8.08776 6.30139 8.03195 6.40834 7.92501C6.51528 7.81806 6.56876 7.68195 6.56876 7.51667C6.56876 7.35139 6.51528 7.21528 6.40834 7.10834L5.88334 6.58334H7.76459C7.92987 6.58334 8.06598 6.52734 8.17292 6.41534C8.27987 6.30373 8.33334 6.16528 8.33334 6.00001C8.33334 5.83473 8.27753 5.69609 8.16592 5.58409C8.05392 5.47248 7.91528 5.41667 7.75001 5.41667H5.88334L6.42292 4.87709C6.52987 4.77014 6.58101 4.63637 6.57634 4.47576C6.57128 4.31553 6.51528 4.18195 6.40834 4.07501C6.30139 3.96806 6.16528 3.91459 6.00001 3.91459C5.83473 3.91459 5.69862 3.96806 5.59167 4.07501L4.07501 5.59167C3.96806 5.69862 3.91459 5.83473 3.91459 6.00001C3.91459 6.16528 3.96806 6.30139 4.07501 6.40834L5.60626 7.93959ZM6.00001 11.8333C5.19306 11.8333 4.43473 11.6801 3.72501 11.3737C3.01528 11.0676 2.39792 10.6521 1.87292 10.1271C1.34792 9.60209 0.932394 8.98473 0.626339 8.27501C0.319894 7.56528 0.166672 6.80695 0.166672 6.00001C0.166672 5.19306 0.319894 4.43473 0.626339 3.72501C0.932394 3.01528 1.34792 2.39792 1.87292 1.87292C2.39792 1.34792 3.01528 0.9322 3.72501 0.625755C4.43473 0.3197 5.19306 0.166672 6.00001 0.166672C6.80695 0.166672 7.56528 0.3197 8.27501 0.625755C8.98473 0.9322 9.60209 1.34792 10.1271 1.87292C10.6521 2.39792 11.0676 3.01528 11.3737 3.72501C11.6801 4.43473 11.8333 5.19306 11.8333 6.00001C11.8333 6.80695 11.6801 7.56528 11.3737 8.27501C11.0676 8.98473 10.6521 9.60209 10.1271 10.1271C9.60209 10.6521 8.98473 11.0676 8.27501 11.3737C7.56528 11.6801 6.80695 11.8333 6.00001 11.8333Z" fill="black"/>
</svg>
