<svg id="visual" viewBox="0 0 900 600" width="900" height="600" xmlns="http://www.w3.org/2000/svg" xmlns:xlink="http://www.w3.org/1999/xlink" version="1.1"><rect x="0" y="0" width="900" height="600" fill="#931C1C"></rect><path d="M0 358L129 325L257 341L386 258L514 303L643 317L771 314L900 273L900 601L771 601L643 601L514 601L386 601L257 601L129 601L0 601Z" fill="#f5730a"></path><path d="M0 327L129 447L257 432L386 432L514 407L643 423L771 438L900 329L900 601L771 601L643 601L514 601L386 601L257 601L129 601L0 601Z" fill="#d15308"></path><path d="M0 483L129 419L257 460L386 501L514 400L643 410L771 410L900 500L900 601L771 601L643 601L514 601L386 601L257 601L129 601L0 601Z" fill="#ac3505"></path><path d="M0 530L129 496L257 522L386 533L514 488L643 490L771 486L900 500L900 601L771 601L643 601L514 601L386 601L257 601L129 601L0 601Z" fill="#871400"></path></svg>