<svg id="visual" viewBox="0 0 1920 6000" width="1920" height="6000" xmlns="http://www.w3.org/2000/svg" xmlns:xlink="http://www.w3.org/1999/xlink" version="1.1"><path d="M0 1621L175 1621L175 2521L349 2521L349 1801L524 1801L524 1261L698 1261L698 1321L873 1321L873 1741L1047 1741L1047 1441L1222 1441L1222 1201L1396 1201L1396 1561L1571 1561L1571 1681L1745 1681L1745 1681L1920 1681L1920 1441L1920 0L1920 0L1745 0L1745 0L1571 0L1571 0L1396 0L1396 0L1222 0L1222 0L1047 0L1047 0L873 0L873 0L698 0L698 0L524 0L524 0L349 0L349 0L175 0L175 0L0 0Z" fill="#001122"></path><path d="M0 2761L175 2761L175 3241L349 3241L349 2461L524 2461L524 2341L698 2341L698 2941L873 2941L873 2521L1047 2521L1047 2881L1222 2881L1222 1861L1396 1861L1396 2761L1571 2761L1571 3241L1745 3241L1745 2701L1920 2701L1920 2401L1920 1439L1920 1679L1745 1679L1745 1679L1571 1679L1571 1559L1396 1559L1396 1199L1222 1199L1222 1439L1047 1439L1047 1739L873 1739L873 1319L698 1319L698 1259L524 1259L524 1799L349 1799L349 2519L175 2519L175 1619L0 1619Z" fill="#02162b"></path><path d="M0 4501L175 4501L175 4741L349 4741L349 4621L524 4621L524 4801L698 4801L698 4501L873 4501L873 4561L1047 4561L1047 4681L1222 4681L1222 4801L1396 4801L1396 3841L1571 3841L1571 4501L1745 4501L1745 4381L1920 4381L1920 4741L1920 2399L1920 2699L1745 2699L1745 3239L1571 3239L1571 2759L1396 2759L1396 1859L1222 1859L1222 2879L1047 2879L1047 2519L873 2519L873 2939L698 2939L698 2339L524 2339L524 2459L349 2459L349 3239L175 3239L175 2759L0 2759Z" fill="#011b35"></path><path d="M0 5221L175 5221L175 5221L349 5221L349 5581L524 5581L524 5461L698 5461L698 5221L873 5221L873 5221L1047 5221L1047 5401L1222 5401L1222 5221L1396 5221L1396 4861L1571 4861L1571 5041L1745 5041L1745 5221L1920 5221L1920 5281L1920 4739L1920 4379L1745 4379L1745 4499L1571 4499L1571 3839L1396 3839L1396 4799L1222 4799L1222 4679L1047 4679L1047 4559L873 4559L873 4499L698 4499L698 4799L524 4799L524 4619L349 4619L349 4739L175 4739L175 4499L0 4499Z" fill="#01203e"></path><path d="M0 6001L175 6001L175 6001L349 6001L349 6001L524 6001L524 6001L698 6001L698 6001L873 6001L873 6001L1047 6001L1047 6001L1222 6001L1222 6001L1396 6001L1396 6001L1571 6001L1571 6001L1745 6001L1745 6001L1920 6001L1920 6001L1920 5279L1920 5219L1745 5219L1745 5039L1571 5039L1571 4859L1396 4859L1396 5219L1222 5219L1222 5399L1047 5399L1047 5219L873 5219L873 5219L698 5219L698 5459L524 5459L524 5579L349 5579L349 5219L175 5219L175 5219L0 5219Z" fill="#022548"></path></svg>