<svg id="visual" viewBox="0 0 1920 1080" width="1920" height="1080" xmlns="http://www.w3.org/2000/svg" xmlns:xlink="http://www.w3.org/1999/xlink" version="1.1"><path d="M0 293L175 293L175 455L349 455L349 325L524 325L524 228L698 228L698 239L873 239L873 314L1047 314L1047 260L1222 260L1222 217L1396 217L1396 282L1571 282L1571 303L1745 303L1745 303L1920 303L1920 260L1920 0L1920 0L1745 0L1745 0L1571 0L1571 0L1396 0L1396 0L1222 0L1222 0L1047 0L1047 0L873 0L873 0L698 0L698 0L524 0L524 0L349 0L349 0L175 0L175 0L0 0Z" fill="#001122"></path><path d="M0 498L175 498L175 584L349 584L349 444L524 444L524 422L698 422L698 530L873 530L873 455L1047 455L1047 519L1222 519L1222 336L1396 336L1396 498L1571 498L1571 584L1745 584L1745 487L1920 487L1920 433L1920 258L1920 301L1745 301L1745 301L1571 301L1571 280L1396 280L1396 215L1222 215L1222 258L1047 258L1047 312L873 312L873 237L698 237L698 226L524 226L524 323L349 323L349 453L175 453L175 291L0 291Z" fill="#02162b"></path><path d="M0 811L175 811L175 854L349 854L349 833L524 833L524 865L698 865L698 811L873 811L873 822L1047 822L1047 843L1222 843L1222 865L1396 865L1396 692L1571 692L1571 811L1745 811L1745 789L1920 789L1920 854L1920 431L1920 485L1745 485L1745 582L1571 582L1571 496L1396 496L1396 334L1222 334L1222 517L1047 517L1047 453L873 453L873 528L698 528L698 420L524 420L524 442L349 442L349 582L175 582L175 496L0 496Z" fill="#011b35"></path><path d="M0 941L175 941L175 941L349 941L349 1005L524 1005L524 984L698 984L698 941L873 941L873 941L1047 941L1047 973L1222 973L1222 941L1396 941L1396 876L1571 876L1571 908L1745 908L1745 941L1920 941L1920 951L1920 852L1920 787L1745 787L1745 809L1571 809L1571 690L1396 690L1396 863L1222 863L1222 841L1047 841L1047 820L873 820L873 809L698 809L698 863L524 863L524 831L349 831L349 852L175 852L175 809L0 809Z" fill="#01203e"></path><path d="M0 1081L175 1081L175 1081L349 1081L349 1081L524 1081L524 1081L698 1081L698 1081L873 1081L873 1081L1047 1081L1047 1081L1222 1081L1222 1081L1396 1081L1396 1081L1571 1081L1571 1081L1745 1081L1745 1081L1920 1081L1920 1081L1920 949L1920 939L1745 939L1745 906L1571 906L1571 874L1396 874L1396 939L1222 939L1222 971L1047 971L1047 939L873 939L873 939L698 939L698 982L524 982L524 1003L349 1003L349 939L175 939L175 939L0 939Z" fill="#022548"></path></svg>